Coordinates
version=1
nRows=38
nColumns=38
inDegrees=no

Units are S.I. units (second, meters, Newtons, ...)
If the header above contains a line with 'inDegrees', this indicates whether rotational values are in degrees (yes) or radians (no).

endheader
time	pelvis_tilt	pelvis_list	pelvis_rotation	pelvis_tx	pelvis_ty	pelvis_tz	hip_flexion_r	hip_adduction_r	hip_rotation_r	knee_angle_r	ankle_angle_r	subtalar_angle_r	mtp_angle_r	hip_flexion_l	hip_adduction_l	hip_rotation_l	knee_angle_l	ankle_angle_l	subtalar_angle_l	mtp_angle_l	lumbar_extension	lumbar_bending	lumbar_rotation	arm_flex_r	arm_add_r	arm_rot_r	elbow_flex_r	pro_sup_r	wrist_flex_r	wrist_dev_r	arm_flex_l	arm_add_l	arm_rot_l	elbow_flex_l	pro_sup_l	wrist_flex_l	wrist_dev_l
5.51	2.07973	1.55839	-0.444813	0.621794	1.93064	1.04969	0.12108	-0.0187197	-0.161652	0.484394	-0.17238	0	0	-0.0925626	-0.0383746	-0.194754	0.110153	-0.444295	0	0	-0.0470294	0.0637117	-0.0889271	0.824464	-0.277033	1.04087	0.996649	1.5708	0	0	0.618682	-0.348167	0.737123	1.00187	1.5708	0	0
5.52	2.17137	1.5568	-0.534186	0.622468	1.93264	1.04986	0.114043	-0.0168947	-0.164064	0.479727	-0.171732	0	0	-0.0973855	-0.0401402	-0.194166	0.107906	-0.444603	0	0	-0.0456075	0.0661822	-0.0918659	0.822327	-0.274345	1.04186	0.994938	1.5708	0	0	0.617315	-0.350459	0.740763	1.00001	1.5708	0	0
5.53	2.23425	1.55522	-0.595219	0.623151	1.93459	1.04998	0.107571	-0.015057	-0.166524	0.475484	-0.171095	0	0	-0.101797	-0.0420821	-0.193188	0.106366	-0.444867	0	0	-0.0441727	0.0684722	-0.0942149	0.819734	-0.27193	1.04156	0.993829	1.5708	0	0	0.615736	-0.352414	0.743658	0.998582	1.5708	0	0
5.54	2.28873	1.55348	-0.648429	0.623868	1.93649	1.05008	0.101132	-0.0130406	-0.16866	0.471109	-0.1705	0	0	-0.106044	-0.0442403	-0.192093	0.105819	-0.444496	0	0	-0.0430426	0.0706257	-0.0958549	0.816917	-0.269834	1.04055	0.993155	1.5708	0	0	0.614046	-0.354128	0.745965	0.997641	1.5708	0	0
5.55	2.34175	1.55164	-0.701217	0.624594	1.93829	1.05017	0.0952479	-0.0111761	-0.170066	0.467824	-0.170014	0	0	-0.110145	-0.0461863	-0.192027	0.105897	-0.44368	0	0	-0.0425075	0.072584	-0.096322	0.814283	-0.26835	1.03934	0.993109	1.5708	0	0	0.612123	-0.355504	0.747184	0.997362	1.5708	0	0
5.56	2.3869	1.54984	-0.746672	0.62533	1.94001	1.05024	0.089724	-0.00943553	-0.171094	0.464669	-0.169478	0	0	-0.113935	-0.0479783	-0.191974	0.106235	-0.442557	0	0	-0.0421399	0.0744019	-0.0963862	0.811763	-0.266903	1.03813	0.993194	1.5708	0	0	0.609903	-0.356922	0.747836	0.997573	1.5708	0	0
5.57	2.41843	1.5484	-0.778921	0.626063	1.94165	1.05027	0.084975	-0.00801922	-0.171949	0.461769	-0.168958	0	0	-0.116923	-0.0494763	-0.191664	0.107181	-0.44111	0	0	-0.0414448	0.0758168	-0.0961392	0.809366	-0.26559	1.03734	0.993393	1.5708	0	0	0.606978	-0.358315	0.747419	0.998495	1.5708	0	0
5.58	2.44038	1.54725	-0.80204	0.626787	1.94322	1.05027	0.0809645	-0.0067913	-0.172693	0.459436	-0.168514	0	0	-0.119267	-0.0506991	-0.191507	0.108581	-0.43973	0	0	-0.0405651	0.0770071	-0.095327	0.806755	-0.26475	1.03631	0.994206	1.5708	0	0	0.603796	-0.359522	0.746562	0.999768	1.5708	0	0
5.59	2.46714	1.54597	-0.830656	0.627479	1.94469	1.05027	0.0770813	-0.00568215	-0.173133	0.45747	-0.168019	0	0	-0.12179	-0.0517672	-0.191805	0.110279	-0.437997	0	0	-0.0402616	0.0781202	-0.0938967	0.804139	-0.264356	1.03493	0.995752	1.5708	0	0	0.600381	-0.360759	0.745007	1.00169	1.5708	0	0
5.6	2.49406	1.54478	-0.859748	0.628168	1.94612	1.05028	0.0735432	-0.00480372	-0.17378	0.455917	-0.167513	0	0	-0.124351	-0.0526813	-0.192387	0.112219	-0.436156	0	0	-0.0401223	0.0789566	-0.0921134	0.801331	-0.264285	1.03331	0.997845	1.5708	0	0	0.596685	-0.361976	0.742837	1.00411	1.5708	0	0
5.61	2.52732	1.54344	-0.895804	0.628836	1.94743	1.05032	0.0702157	-0.00420124	-0.174292	0.454939	-0.167058	0	0	-0.127061	-0.0531807	-0.193833	0.114263	-0.434161	0	0	-0.0406623	0.0796037	-0.0896809	0.798729	-0.264483	1.03159	1.00035	1.5708	0	0	0.592876	-0.363059	0.739943	1.00697	1.5708	0	0
5.62	2.5614	1.54217	-0.933056	0.629505	1.94869	1.05036	0.0670443	-0.0037807	-0.17476	0.453989	-0.166631	0	0	-0.129773	-0.0533689	-0.195986	0.116342	-0.432236	0	0	-0.0413548	0.0799637	-0.0869174	0.796183	-0.264718	1.02978	1.003	1.5708	0	0	0.588753	-0.364126	0.736279	1.01026	1.5708	0	0
5.63	2.59167	1.54106	-0.966625	0.630145	1.94988	1.05037	0.0643232	-0.00348381	-0.175054	0.453274	-0.166273	0	0	-0.132375	-0.053366	-0.198542	0.118023	-0.430384	0	0	-0.0420343	0.0801899	-0.0841323	0.793841	-0.264856	1.02799	1.00563	1.5708	0	0	0.584308	-0.365315	0.731893	1.01414	1.5708	0	0
5.64	2.61483	1.54028	-0.992982	0.630734	1.95098	1.05037	0.0621663	-0.00324924	-0.175182	0.452666	-0.165899	0	0	-0.134718	-0.0532622	-0.201008	0.119173	-0.428743	0	0	-0.0425244	0.0802765	-0.0814685	0.791659	-0.265001	1.02619	1.00832	1.5708	0	0	0.579515	-0.366567	0.726741	1.01862	1.5708	0	0
5.65	2.63533	1.53985	-1.01663	0.63125	1.95201	1.05034	0.0604864	-0.00319823	-0.174856	0.452218	-0.165361	0	0	-0.136632	-0.052893	-0.20341	0.120355	-0.427197	0	0	-0.042925	0.080129	-0.0791715	0.789683	-0.264928	1.02436	1.01104	1.5708	0	0	0.573809	-0.36793	0.719719	1.0241	1.5708	0	0
5.66	2.65519	1.53931	-1.03975	0.631693	1.95297	1.05032	0.0588242	-0.00312322	-0.173379	0.451927	-0.164481	0	0	-0.13874	-0.0524735	-0.206299	0.121343	-0.425429	0	0	-0.0440922	0.0799366	-0.0776238	0.788241	-0.264373	1.02274	1.01406	1.5708	0	0	0.565944	-0.36954	0.708098	1.03181	1.5708	0	0
5.67	2.66839	1.53837	-1.0559	0.632136	1.95394	1.05035	0.0566912	-0.00255168	-0.171792	0.451326	-0.163913	0	0	-0.141364	-0.0524561	-0.209075	0.121613	-0.424494	0	0	-0.0450801	0.0799888	-0.0764169	0.787203	-0.263669	1.0226	1.01632	1.5708	0	0	0.558298	-0.371335	0.697704	1.03886	1.5708	0	0
5.68	2.6791	1.5373	-1.06972	0.63252	1.95481	1.05037	0.0545245	-0.00190308	-0.169834	0.450569	-0.163535	0	0	-0.14415	-0.0522714	-0.212669	0.121232	-0.42406	0	0	-0.0462914	0.0801975	-0.0752662	0.786772	-0.263093	1.02349	1.01871	1.5708	0	0	0.550486	-0.37318	0.68699	1.04605	1.5708	0	0
5.69	2.6834	1.53576	-1.07749	0.633001	1.95571	1.0504	0.0517899	-0.000637481	-0.167802	0.449207	-0.163313	0	0	-0.147854	-0.0525444	-0.217275	0.120045	-0.423821	0	0	-0.0478065	0.0806735	-0.0738926	0.786253	-0.262338	1.02438	1.02126	1.5708	0	0	0.542334	-0.375358	0.676036	1.05363	1.5708	0	0
5.7	2.68339	1.53437	-1.08067	0.633434	1.95652	1.05041	0.0498156	0.000318967	-0.166819	0.449045	-0.163149	0	0	-0.15131	-0.0528415	-0.221326	0.118881	-0.42325	0	0	-0.0492421	0.0811576	-0.0726101	0.785556	-0.261853	1.02489	1.02425	1.5708	0	0	0.534363	-0.377506	0.665362	1.06127	1.5708	0	0
5.71	2.68081	1.53334	-1.0808	0.633775	1.95724	1.05041	0.0486631	0.000803375	-0.166945	0.449886	-0.162943	0	0	-0.154241	-0.0529965	-0.224486	0.11767	-0.42265	0	0	-0.0503899	0.0814995	-0.0716678	0.784649	-0.261644	1.02505	1.02754	1.5708	0	0	0.526511	-0.379549	0.654891	1.06894	1.5708	0	0
5.72	2.67668	1.53315	-1.07909	0.634064	1.95793	1.05032	0.0472908	0.00130298	-0.165972	0.448157	-0.16262	0	0	-0.1562	-0.0527256	-0.227066	0.116348	-0.422523	0	0	-0.0510662	0.0809267	-0.0703897	0.782564	-0.262272	1.02334	1.03231	1.5708	0	0	0.51839	-0.38138	0.644224	1.07744	1.5708	0	0
5.73	2.67236	1.53286	-1.0769	0.634305	1.95859	1.05025	0.0461559	0.00161772	-0.165823	0.447299	-0.16239	0	0	-0.158139	-0.0525565	-0.229307	0.115093	-0.422419	0	0	-0.0521436	0.0801487	-0.0691786	0.779823	-0.263198	1.02019	1.03787	1.5708	0	0	0.509731	-0.382939	0.632626	1.0868	1.5708	0	0
5.74	2.66867	1.53248	-1.07508	0.63452	1.95922	1.05019	0.0455482	0.00162515	-0.167041	0.447995	-0.162189	0	0	-0.160054	-0.0524653	-0.231292	0.113803	-0.422267	0	0	-0.0535246	0.0791745	-0.0681428	0.776699	-0.264442	1.01621	1.04411	1.5708	0	0	0.500441	-0.384103	0.619438	1.09724	1.5708	0	0
5.75	2.66562	1.53235	-1.07364	0.634711	1.9598	1.05012	0.0450661	0.0015271	-0.168326	0.4484	-0.161918	0	0	-0.161584	-0.0522885	-0.232836	0.1126	-0.422284	0	0	-0.0552881	0.0777055	-0.0677429	0.772954	-0.265731	1.01059	1.05164	1.5708	0	0	0.489526	-0.385188	0.60257	1.11002	1.5708	0	0
5.76	2.6618	1.53252	-1.0711	0.634891	1.96036	1.05002	0.0447333	0.00139821	-0.169578	0.448534	-0.16156	0	0	-0.162857	-0.0522205	-0.233593	0.111517	-0.42232	0	0	-0.0568075	0.0758467	-0.0675232	0.768525	-0.267481	1.00405	1.06018	1.5708	0	0	0.479026	-0.386192	0.586214	1.12321	1.5708	0	0
5.77	2.66204	1.53239	-1.07265	0.635034	1.96082	1.04995	0.0442221	0.00121166	-0.170587	0.449033	-0.161132	0	0	-0.164323	-0.0521247	-0.234378	0.110566	-0.422184	0	0	-0.0590538	0.0738185	-0.0673341	0.764136	-0.269359	0.997101	1.06932	1.5708	0	0	0.469071	-0.387213	0.570321	1.13711	1.5708	0	0
5.78	2.65962	1.53225	-1.07121	0.635146	1.96126	1.04987	0.0434893	0.00121465	-0.171557	0.44887	-0.160719	0	0	-0.1655	-0.0521895	-0.235268	0.109885	-0.422006	0	0	-0.0611476	0.0717592	-0.0674591	0.759539	-0.271095	0.989966	1.07862	1.5708	0	0	0.459412	-0.388656	0.555641	1.15168	1.5708	0	0
5.79	2.65112	1.53206	-1.06355	0.635217	1.96169	1.04978	0.0425924	0.00152118	-0.172484	0.448119	-0.160474	0	0	-0.166508	-0.0524694	-0.236404	0.109154	-0.421844	0	0	-0.0628465	0.0701132	-0.0677405	0.754398	-0.272659	0.981938	1.08828	1.5708	0	0	0.449618	-0.390462	0.542202	1.16684	1.5708	0	0
5.8	2.64215	1.53172	-1.05548	0.635252	1.9621	1.0497	0.0415465	0.00187345	-0.173504	0.447227	-0.160321	0	0	-0.167627	-0.0526888	-0.237577	0.108336	-0.421632	0	0	-0.0646081	0.0688304	-0.0676135	0.747856	-0.274697	0.970746	1.09965	1.5708	0	0	0.439185	-0.392013	0.529199	1.18261	1.5708	0	0
5.81	2.63294	1.53139	-1.04722	0.635283	1.96252	1.04963	0.0404656	0.00220498	-0.174634	0.446123	-0.160271	0	0	-0.168914	-0.0528601	-0.238523	0.10737	-0.421442	0	0	-0.0666	0.0674932	-0.0667926	0.738076	-0.277526	0.952858	1.114	1.5708	0	0	0.427904	-0.393068	0.516129	1.19965	1.5708	0	0
5.82	2.62091	1.53128	-1.03631	0.635304	1.96293	1.04954	0.0397346	0.00249534	-0.175475	0.445147	-0.160282	0	0	-0.169809	-0.0529581	-0.239812	0.106558	-0.421262	0	0	-0.0678281	0.0663463	-0.0652397	0.727016	-0.281328	0.933943	1.12994	1.5708	0	0	0.416873	-0.394104	0.505802	1.21656	1.5708	0	0
5.83	2.604	1.53149	-1.0206	0.635307	1.96335	1.04941	0.0394953	0.00275475	-0.176224	0.444335	-0.16023	0	0	-0.170413	-0.0531492	-0.241155	0.10577	-0.421029	0	0	-0.0683916	0.0651325	-0.0634056	0.715003	-0.285821	0.915629	1.14744	1.5708	0	0	0.405152	-0.395733	0.497114	1.23421	1.5708	0	0
5.84	2.5887	1.53172	-1.00649	0.635298	1.96375	1.0493	0.0393156	0.00295288	-0.176861	0.443579	-0.160151	0	0	-0.170933	-0.0531347	-0.242625	0.10476	-0.420835	0	0	-0.0686646	0.0639519	-0.0616178	0.70249	-0.290861	0.899357	1.16562	1.5708	0	0	0.393192	-0.398197	0.491071	1.25177	1.5708	0	0
5.85	2.57836	1.532	-0.99716	0.635279	1.96417	1.04923	0.0389983	0.00296562	-0.177618	0.442731	-0.160043	0	0	-0.171284	-0.0528686	-0.24406	0.103977	-0.421071	0	0	-0.0686753	0.0625836	-0.0598857	0.689341	-0.296229	0.885079	1.18462	1.5708	0	0	0.381607	-0.400855	0.488223	1.26803	1.5708	0	0
5.86	2.57011	1.53218	-0.989775	0.635246	1.96463	1.04918	0.0383591	0.00300787	-0.178344	0.44165	-0.160034	0	0	-0.171848	-0.0527233	-0.245098	0.10334	-0.421299	0	0	-0.0679766	0.0615486	-0.0588437	0.678276	-0.301531	0.877375	1.2018	1.5708	0	0	0.370123	-0.403801	0.487991	1.28205	1.5708	0	0
5.87	2.56297	1.53229	-0.983496	0.635216	1.96507	1.04917	0.0376135	0.00312463	-0.178643	0.440472	-0.160118	0	0	-0.172567	-0.0526819	-0.245799	0.102842	-0.421431	0	0	-0.067307	0.0605159	-0.0578712	0.667795	-0.306714	0.871699	1.21762	1.5708	0	0	0.358435	-0.406608	0.488573	1.29476	1.5708	0	0
5.88	2.5618	1.5321	-0.983489	0.63517	1.96544	1.0492	0.0367062	0.00314936	-0.178629	0.439516	-0.160307	0	0	-0.173738	-0.0525901	-0.246668	0.102323	-0.421534	0	0	-0.0666034	0.059942	-0.0570233	0.658903	-0.311673	0.868187	1.23036	1.5708	0	0	0.346498	-0.409451	0.490038	1.30586	1.5708	0	0
